<?xml version="1.0" encoding="UTF-8" standalone="no"?>
<!-- Generator: Adobe Illustrator 16.0.3, SVG Export Plug-In . SVG Version: 6.00 Build 0)  -->

<svg
   version="1.1"
   id="Layer_1"
   x="0px"
   y="0px"
   width="3231.9104"
   height="650"
   viewBox="0 0 3231.9103 650.00001"
   enable-background="new 0 0 729.012 380"
   xml:space="preserve"
   sodipodi:docname="AwayFromHomeText.svg"
   inkscape:version="1.2.2 (b0a8486541, 2022-12-01)"
   xmlns:inkscape="http://www.inkscape.org/namespaces/inkscape"
   xmlns:sodipodi="http://sodipodi.sourceforge.net/DTD/sodipodi-0.dtd"
   xmlns="http://www.w3.org/2000/svg"
   xmlns:svg="http://www.w3.org/2000/svg"><defs
   id="defs23" /><sodipodi:namedview
   id="namedview21"
   pagecolor="#ffffff"
   bordercolor="#000000"
   borderopacity="0.25"
   inkscape:showpageshadow="2"
   inkscape:pageopacity="0.0"
   inkscape:pagecheckerboard="0"
   inkscape:deskcolor="#d1d1d1"
   showgrid="false"
   showguides="true"
   inkscape:zoom="0.13222374"
   inkscape:cx="854.61203"
   inkscape:cy="400.83573"
   inkscape:window-width="1500"
   inkscape:window-height="927"
   inkscape:window-x="0"
   inkscape:window-y="0"
   inkscape:window-maximized="1"
   inkscape:current-layer="Layer_1" />

<rect
   x="0"
   y="0"
   fill="#268053"
   width="650"
   height="650"
   id="rect11"
   style="stroke-width:1.32499" />
<g
   id="g750"
   transform="matrix(1.2882517,0,0,1.7100736,85.528773,318.13014)"><path
     sodipodi:type="star"
     style="fill:#ffffff"
     id="path452"
     inkscape:flatsided="false"
     sodipodi:sides="3"
     sodipodi:cx="1.3540641"
     sodipodi:cy="-198.37041"
     sodipodi:r1="106.24227"
     sodipodi:r2="53.121136"
     sodipodi:arg1="1.0471976"
     sodipodi:arg2="2.0943952"
     inkscape:rounded="0"
     inkscape:randomized="0"
     d="m 54.475195,-106.3619 -79.681703,-46.00426 -79.681702,-46.00425 79.681711,-46.00425 79.681703,-46.00425 -4e-6,92.00851 z"
     inkscape:transform-center-x="-13.782356"
     inkscape:transform-center-y="2.1288093"
     transform="matrix(0,0.6203306,-2.0191334,0,-214.64777,-107.13225)" /><path
     sodipodi:type="star"
     style="fill:#268053;fill-opacity:1"
     id="path454"
     inkscape:flatsided="false"
     sodipodi:sides="3"
     sodipodi:cx="1.3540641"
     sodipodi:cy="-198.37041"
     sodipodi:r1="106.24227"
     sodipodi:r2="53.121136"
     sodipodi:arg1="1.0471976"
     sodipodi:arg2="2.0943952"
     inkscape:rounded="0"
     inkscape:randomized="0"
     d="m 54.475195,-106.3619 -79.681703,-46.00426 -79.681702,-46.00425 79.681711,-46.00425 79.681703,-46.00425 -4e-6,92.00851 z"
     inkscape:transform-center-x="-13.782356"
     inkscape:transform-center-y="2.1288093"
     transform="matrix(0,0.6203306,-2.0191334,0,-214.64777,-82.198087)" /></g>

<g
   id="g1008"
   transform="translate(0,25.982763)"><path
     fill="#ffffff"
     d="m 225.2263,573.46915 -19.17482,18.86991 h 191.75184 l 19.17481,-18.86991 c -0.9639,-99.0444 1.51294,-191.88397 0,-271.80135 H 225.22538 c -1.64961,115.64376 9.2e-4,194.05035 9.2e-4,271.80135 z"
     id="path13"
     sodipodi:nodetypes="ccccccc"
     style="stroke-width:0.918378" /><rect
     style="fill:#ffffff;fill-opacity:1;stroke:none;stroke-width:1.81715"
     id="rect883"
     width="58.473003"
     height="43.548306"
     x="186.91301"
     y="409.4371"
     ry="21.774153" /><path
     id="path1479-6-9"
     fill="#268053"
     d="m 285.17526,327.95362 c 12.61301,0 22.30557,9.69256 22.30557,22.37261 0,12.70392 -9.6944,22.39649 -22.30557,22.39649 -12.61392,0 -22.28169,-9.69257 -22.28169,-22.39649 0,-12.68005 9.66869,-22.37353 22.28169,-22.37261 z m 2.69636,50.31426 v 0.002 c 22.03189,0 66.03231,0.0698 66.03231,0.0698 9.41613,0.29204 11.07104,2.15084 14.69496,7.53988 l 20.60565,34.46581 c 6.2762,13.40465 -12.45045,22.62149 -19.38145,9.98369 l -16.80356,-29.43677 c -0.31776,-0.54368 -0.79164,-0.67776 -1.40145,-0.65664 l -23.21476,0.27092 c 6.34416,13.53965 12.68648,27.06185 19.0242,40.64925 1.94421,5.07129 2.53381,9.71552 3.0582,16.41693 0.83756,13.4974 1.58696,27.08297 2.37493,40.58129 0.2498,1.78992 0.83756,2.99024 2.98932,2.99024 16.96428,-0.067 49.4115,-0.43256 49.4115,-0.43256 16.84856,0.65481 27.19684,14.44793 27.19684,24.8908 l -90.85147,-0.20939 c -8.03948,-0.24888 -14.17516,-2.55584 -14.89885,-11.63768 l -2.76431,-52.46786 c -14.65181,29.48453 -29.34769,58.94518 -43.97562,88.42787 -3.64688,6.40752 -7.97152,13.56536 -18.34277,13.33761 l -19.8388,0.0661 54.07778,-109.19332 c 1.08736,-2.06084 -0.36368,-4.70853 -0.97624,-5.88589 -5.43496,-11.52472 -10.57421,-21.67372 -16.03213,-33.60804 l -19.67533,23.25884 c -3.24463,3.24279 -4.22546,4.04454 -8.76041,4.13178 -0.10837,0.007 -0.2149,0.011 -0.32602,0.0138 -0.16715,0.004 -0.25256,0.0239 -0.42705,0.0239 -0.26357,0 -0.51337,-0.0119 -0.77695,-0.0138 h -38.36708 c -5.95017,0 -10.73492,-4.78659 -10.73492,-10.73584 0,-5.94925 4.78567,-10.73768 10.73492,-10.73768 h 18.26562 c 4.25118,-0.24796 9.06899,-0.34806 14.56089,-0.2553 2.96636,0.0248 3.668,-0.61164 4.91332,-2.10585 8.96888,-10.5742 19.02237,-22.66924 28.21533,-34.01305 3.41821,-3.64504 4.23556,-5.88956 11.3934,-5.73068 z"
     style="stroke-width:0.918378" /><polygon
     fill="#268053"
     points="260.269,333.098 232.677,359.525 200.963,359.525 228.554,333.098 "
     id="polygon16"
     transform="matrix(-0.9183781,0,0,0.9183781,479.68747,263.98491)" /></g>

<g
   id="g819"
   transform="matrix(0.50463018,0,0,0.50463018,30.750675,209.37368)"><rect
     style="fill:#ffffff;fill-opacity:1;stroke:none"
     id="rect804"
     width="263.92786"
     height="279.81241"
     x="450.87677"
     y="-120.96693" /><rect
     style="fill:#268053;fill-opacity:1;stroke:none;stroke-width:0.903562"
     id="rect806"
     width="92.863503"
     height="103.74834"
     x="477.7583"
     y="-95.307281" /><rect
     style="fill:#268053;fill-opacity:1;stroke:none;stroke-width:0.903562"
     id="rect808"
     width="92.863503"
     height="103.74834"
     x="596.28143"
     y="-95.307281" /><rect
     style="fill:#268053;fill-opacity:1;stroke:none;stroke-width:0.903562"
     id="rect810"
     width="92.863503"
     height="103.74834"
     x="477.7583"
     y="29.437475" /><rect
     style="fill:#268053;fill-opacity:1;stroke:none;stroke-width:0.903562"
     id="rect812"
     width="92.863503"
     height="103.74834"
     x="596.28143"
     y="29.437475" /></g><text
   xml:space="preserve"
   style="font-style:normal;font-variant:normal;font-weight:900;font-stretch:normal;font-size:314.52px;font-family:Roboto;-inkscape-font-specification:'Roboto, Heavy';font-variant-ligatures:normal;font-variant-caps:normal;font-variant-numeric:normal;font-variant-east-asian:normal;fill:#268053;fill-opacity:1;stroke:none;stroke-width:5.74003"
   x="747.07971"
   y="427.81635"
   id="text1082"><tspan
     sodipodi:role="line"
     id="tspan1080"
     x="747.07971"
     y="427.81635"
     style="font-style:normal;font-variant:normal;font-weight:900;font-stretch:normal;font-size:314.52px;font-family:Roboto;-inkscape-font-specification:'Roboto, Heavy';font-variant-ligatures:normal;font-variant-caps:normal;font-variant-numeric:normal;font-variant-east-asian:normal;stroke-width:5.74003">Away From Home</tspan></text></svg>
