<svg width="650" height="650" xml:space="preserve" xmlns="http://www.w3.org/2000/svg"><path fill="#268053" style="stroke-width:1.32499" d="M0 0h650v650H0z"/><path style="fill:#fff" d="m54.475-106.362-79.682-46.004-79.681-46.004 79.682-46.005 79.681-46.004v92.009z" transform="matrix(0 1.06081 -2.60115 0 -190.992 134.926)"/><path style="fill:#268053;fill-opacity:1" d="m54.475-106.362-79.682-46.004-79.681-46.004 79.682-46.005 79.681-46.004v92.009z" transform="matrix(0 1.06081 -2.60115 0 -190.992 177.565)"/><g transform="translate(0 25.983)"><path fill="#fff" d="m225.226 573.47-19.175 18.87h191.752l19.175-18.87c-.964-99.045 1.513-191.885 0-271.802H225.225c-1.65 115.644.001 194.05.001 271.801z" style="stroke-width:.918378"/><rect style="fill:#fff;fill-opacity:1;stroke:none;stroke-width:1.81715" width="58.473" height="43.548" x="186.913" y="409.437" ry="21.774"/><path fill="#268053" d="M285.175 327.954c12.613 0 22.306 9.692 22.306 22.372 0 12.704-9.695 22.397-22.306 22.397-12.614 0-22.281-9.693-22.281-22.397 0-12.68 9.668-22.373 22.281-22.372zm2.697 50.314v.002c22.032 0 66.032.07 66.032.07 9.416.292 11.071 2.15 14.695 7.54l20.606 34.465c6.276 13.405-12.45 22.622-19.382 9.984l-16.803-29.437c-.318-.543-.792-.677-1.402-.656l-23.215.27c6.344 13.54 12.687 27.062 19.025 40.65 1.944 5.071 2.533 9.715 3.058 16.417.837 13.497 1.587 27.083 2.375 40.581.25 1.79.837 2.99 2.989 2.99 16.964-.067 49.411-.432 49.411-.432 16.849.655 27.197 14.448 27.197 24.89l-90.851-.209c-8.04-.249-14.175-2.556-14.899-11.638l-2.764-52.467c-14.652 29.484-29.348 58.945-43.976 88.427-3.647 6.408-7.971 13.566-18.343 13.338l-19.839.066 54.078-109.193c1.088-2.061-.363-4.709-.976-5.886-5.435-11.525-10.574-21.674-16.032-33.608L259.18 437.69c-3.245 3.243-4.226 4.044-8.76 4.132a8.23 8.23 0 0 1-.327.013c-.167.004-.252.024-.427.024-.263 0-.513-.012-.777-.014h-38.367a10.709 10.709 0 0 1-10.735-10.735c0-5.95 4.786-10.738 10.735-10.738h18.266c4.25-.248 9.069-.348 14.56-.255 2.967.024 3.669-.612 4.914-2.106a2041.11 2041.11 0 0 0 28.215-34.013c3.418-3.645 4.236-5.89 11.394-5.731z" style="stroke-width:.918378"/><path fill="#268053" d="m295.127 594.165-25.339-24.27h-29.126l25.34 24.27z"/></g><path style="fill:#fff;fill-opacity:1;stroke:none" d="M450.877-120.967h263.928v279.812H450.877z" transform="translate(30.75 209.374) scale(.50463)"/><path style="fill:#268053;fill-opacity:1;stroke:none;stroke-width:.903562" d="M477.758-95.307h92.864V8.441h-92.864zM596.281-95.307h92.864V8.441h-92.864zM477.758 29.437h92.864v103.748h-92.864zM596.281 29.437h92.864v103.748h-92.864z" transform="translate(30.75 209.374) scale(.50463)"/></svg>